<?xml version="1.0" encoding="iso-8859-1"?>
<!-- Generator: Adobe Illustrator 16.0.0, SVG Export Plug-In . SVG Version: 6.00 Build 0)  -->
<!DOCTYPE svg PUBLIC "-//W3C//DTD SVG 1.1//EN" "http://www.w3.org/Graphics/SVG/1.1/DTD/svg11.dtd">
<svg xmlns="http://www.w3.org/2000/svg" xmlns:xlink="http://www.w3.org/1999/xlink" version="1.1" id="Capa_1" x="0px" y="0px" width="512px" height="512px" viewBox="0 0 234.51 234.51" style="enable-background:new 0 0 234.51 234.51;" xml:space="preserve">
<g>
	<path d="M7.558,14.097l7.613,10.149L14.42,13.012l7.991,10.515c46.054-8.334,61.998,46.048,61.998,46.048   c23.93,22.484,59.832,14.866,59.832,14.866c29.743-5.441,45.306,14.502,45.306,14.502c30.446,1.809,31.912,38.066,31.912,38.066   c-0.378,19.954,13.051,32.272,13.051,32.272c-29.736,0.366-34.808-37.699-34.808-37.699c-2.542-28.652-7.985-24.305-7.985-24.305   c5.815,22.479-22.84,45.312-22.84,45.312c1.1,3.629,6.183,4.717,6.183,4.717c13.767,7.613,5.799,10.516,5.799,10.516   c-4.705,7.631-11.614,6.177-11.614,6.177c0.721,8.7-8.707,15.226-8.707,15.226c-5.432,13.051-17.023,22.84-17.023,22.84   c-2.169,0-3.263,2.541-3.263,2.541c0,6.893-9.072,6.893-9.072,6.893c-6.183,0-6.887-1.82-6.887-1.82   c1.088-9.067,14.499-11.598,14.499-11.598c5.438-3.983,1.46-5.083,1.46-5.083c-8.346,2.169-3.263-9.428-3.263-9.428   c0.367-13.767,11.592-16.681,11.592-16.681c4.711-1.093,5.083-3.623,5.083-3.623c-7.259-6.165-10.516-25.747-10.516-25.747   c-4.356,0.722-10.497-3.983-10.497-3.983c-22.13,11.597-64.912-2.542-64.912-2.542c0,10.509-5.441,24.659-5.441,24.659   c2.53,25.748-0.727,34.803-0.727,34.803c-2.899,6.525-3.26,6.171-3.26,6.171c5.429,7.247-2.175,8.335-2.175,8.335h-6.886   c-11.608-0.733-4.353-6.526-4.353-6.526c11.228-7.246,9.788-16.668,9.788-16.668c-0.357-5.805-1.823-32.64-1.823-32.64   c-0.724-11.597-4.702-15.244-4.702-15.244c-3.996,5.444-27.55,7.975-27.55,7.975c-7.616,13.411,10.143,26.102,10.143,26.102   c3.269-5.805,8.352,1.088,8.352,1.088c5.06,10.521,1.797,10.875,1.797,10.875c-4.351,0.361-11.588-6.158-11.588-6.158   c-13.778-2.896-21.045-27.568-21.045-27.568c-4.354-13.417,16.692-16.668,16.692-16.668c17.407-6.525,10.876-11.976,10.876-11.976   c-9.792-14.136-1.815-22.484-1.815-22.484c3.996-4.351,3.621-12.69,3.621-12.69c-7.253-15.593-6.889-34.803-6.889-34.803   c-2.161,7.977-11.966,14.139-11.966,14.139s2.172-13.775,0,1.451C16.619,88.392,4.283,80.41,4.283,80.41   c-8.698-5.423-1.457-18.843-1.457-18.843c-0.375-14.872,7.255-31.903,7.255-31.903L7.558,14.097z"/>
</g>
<g>
</g>
<g>
</g>
<g>
</g>
<g>
</g>
<g>
</g>
<g>
</g>
<g>
</g>
<g>
</g>
<g>
</g>
<g>
</g>
<g>
</g>
<g>
</g>
<g>
</g>
<g>
</g>
<g>
</g>
</svg>
