<?xml version="1.0" encoding="iso-8859-1"?>
<!-- Generator: Adobe Illustrator 16.0.0, SVG Export Plug-In . SVG Version: 6.00 Build 0)  -->
<!DOCTYPE svg PUBLIC "-//W3C//DTD SVG 1.1//EN" "http://www.w3.org/Graphics/SVG/1.1/DTD/svg11.dtd">
<svg xmlns="http://www.w3.org/2000/svg" xmlns:xlink="http://www.w3.org/1999/xlink" version="1.1" id="Capa_1" x="0px" y="0px" width="512px" height="512px" viewBox="0 0 201.746 201.746" style="enable-background:new 0 0 201.746 201.746;" xml:space="preserve">
<g>
	<path d="M15.404,22.017c0,0-0.455-11.041-0.686-11.96c-0.23-0.922,5.515,8.969,5.515,8.969l1.383-8.969l9.434,12.648   c16.792,3.91,51.063,31.741,51.063,31.741c12.649,14.029,41.629,8.97,41.629,8.97c24.151-9.437,50.371-0.23,50.371-0.23   c35.424,8.963,26.676,45.997,26.676,45.997c-4.368,8.051-2.299,27.834-2.299,27.834c-15.41-12.424-8.051-44.162-8.051-44.162   c-1.383-15.871-8.057-19.089-8.057-19.089s-0.916,0,0,1.149c9.25,11.567-1.838,31.508-1.838,31.508   c-5.06,18.855,4.599,26.22,4.599,26.22c9.895,10.58,6.903,29.896,6.903,29.896c2.3,5.06,1.845,13.796,1.845,13.796   c-2.075,2.299-1.614,6.213-1.614,6.213c3.677,8.505-1.844,9.202-1.844,9.202h-9.203c-5.06-1.613,3.677-8.741,3.677-8.741   c1.613-2.069,0.691-4.83,0.691-4.83c-1.147-4.598-2.761-26.22-2.761-26.22c-4.368-4.144-11.266-18.637-11.266-18.637   c-2.991-0.455-1.141,2.767-1.141,2.767c3.445,7.82-2.081,26.911-2.081,26.911c0.23,14.257-4.368,14.948-4.368,14.948   c-3.445,2.53-2.068,5.291-2.068,5.291c2.76,4.143-0.916,5.751-0.916,5.751h-11.042c-4.368,0,0.231-4.368,0.231-4.368   c3.676-1.619,7.364-7.141,10.119-13.796c2.76-6.679-0.686-31.972-0.686-31.972c-5.291-10.119-11.497-29.896-11.497-29.896   c-3.452-4.144-12.194-0.23-12.194-0.23c-13.34,11.496-49.449,6.904-49.449,6.904c-10.581,2.068-2.299,39.791-2.299,39.791   c3.452,10.119,2.068,19.541,2.068,19.541c-1.838,0.691-1.377,4.144-1.377,4.144c2.991,4.604,1.377,7.134,1.377,7.134H74.985   c-5.06-0.23,1.377-6.206,1.377-6.206c2.991-1.613,4.368-10.125,4.368-10.125c0-9.428-3.907-18.631-3.907-18.631   c-2.76-2.761-2.069,8.506-2.069,8.506c0.686,10.811-1.383,17.253-1.383,17.253c-3.221,2.3-2.53,6.438-2.53,6.438   c1.383,6.206-4.829,5.06-4.829,5.06c-7.583,0-8.281-0.917-8.281-0.917c-0.917-2.76,6.212-6.673,6.212-6.673   c7.128-3.677,4.368-27.609,4.368-27.609c-2.76-12.648-5.521-37.255-5.521-37.255c-12.655-9.209-10.12-28.987-10.12-28.987   c-10.816-6.67-19.777-37.031-19.777-37.031c-2.766-3.449-6.212-0.461-6.212-0.461c-3.222,6.9-13.341,6.67-13.341,6.67   C8.743,64.093,2.3,60.183,2.3,60.183c-7.134-6.209,4.604-21.158,4.604-21.158C8.967,36.507,15.404,22.017,15.404,22.017z"/>
</g>
<g>
</g>
<g>
</g>
<g>
</g>
<g>
</g>
<g>
</g>
<g>
</g>
<g>
</g>
<g>
</g>
<g>
</g>
<g>
</g>
<g>
</g>
<g>
</g>
<g>
</g>
<g>
</g>
<g>
</g>
</svg>
